<svg xmlns="http://www.w3.org/2000/svg" viewBox="0 0 469 110" width="469" height="110" style=""><rect id="backgroundrect" width="100%" height="100%" x="0" y="0" fill="none" stroke="none" class="" style=""/><defs><style>.cls-1{fill:#f79422;}.cls-2{fill:#3d3c3b;}</style></defs><title>EF_GRY_OR_svg</title><g class="currentLayer" style=""><title>Layer 1</title><g id="Layer_1" data-name="Layer 1" class=""><path class="cls-1" d="M442.0400875745227,101.85649624419028 l-14.42341806418863,-13.343856719647864 h-4.508357895496101 V109.98411806433941 h5.556426336146487 v-14.556934603252214 l15.488122511833467,14.556934603252214 h3.4436534478512653 V88.52477030337845 h-5.556426336146487 zM388.12278890550834,91.78794981027414 c6.937214916685882,0 9.715428084759122,4.051680131238534 9.63224804978687,7.678783003215542 s-2.6950331331009907,7.278467301626107 -9.63224804978687,7.278467301626107 s-9.549068014814619,-3.7726722180095313 -9.665520063775773,-7.278467301626107 S381.21884600281135,91.78794981027414 388.12278890550834,91.78794981027414 zm0,-3.6392336508130536 c-10.181236280603741,0 -15.138766364950005,5.677204495268364 -15.138766364950005,11.318016654028597 s4.79117001440176,11.07540107730773 15.138766364950005,11.07540107730773 s14.9724062950055,-5.555896706907928 15.105494350961106,-11.111793413815857 S398.2707531721232,88.14871615946109 388.12278890550834,88.14871615946109 zm-35.31824284921853,21.83540190487832 V88.52477030337845 H347.2813917341323 V109.98411806433941 zm-39.194432478925506,0 h5.556426336146487 V92.20039629069962 h9.33279992388676 v-3.6392336508130536 H304.26067764648315 v3.6392336508130536 h9.349435930881212 zm-31.458689226506003,-7.812221570412022 h-10.946492602348464 l5.473246301174232,-9.170868800048895 zm4.707989979429508,7.812221570412022 h6.055506545980002 L279.73920333666297,88.52477030337845 h-6.055506545980002 L260.44143522310037,109.98411806433941 H266.4303977411025 l2.512037056162034,-4.03954935240249 h15.404942476861212 zm-63.21682657891211,-17.662413985279354 h6.055506545980002 c6.404862692863465,0 9.083259818970001,3.3480949587480096 9.216347874925608,6.696189917496017 s-2.528673063156485,7.072244061413367 -9.216347874925608,7.072244061413367 h-6.055506545980002 zm6.055506545980002,-3.8333261121897495 H218.18597745719592 V109.98411806433941 h11.562024861143135 c10.314324336559343,0 14.855954246044346,-5.4831120338916675 14.722866190088743,-10.91770095243916 S239.81278654998164,88.52477030337845 229.69809429735568,88.52477030337845 zm-37.21474764658589,13.343856719647864 l-14.42341806418863,-13.343856719647864 h-4.508357895496101 V109.98411806433941 h5.556426336146487 v-14.556934603252214 l15.471486504839017,14.556934603252214 h3.4602894548457157 V88.52477030337845 h-5.556426336146487 zm-45.682475206761225,-13.2710720466316 V100.88603393730678 c0,3.6392336508130536 -2.595217091134287,5.919820071989233 -7.1867550216026395,5.919820071989233 s-7.619291203458354,-2.0501016232913543 -7.619291203458354,-5.919820071989233 V88.58542419755864 h-5.5065183151631345 V100.88603393730678 c0,6.465705119611191 6.022234531991101,9.595446059310417 13.075901497638137,9.595446059310417 c7.403023112530497,0 12.759817364743574,-3.251048728059661 12.759817364743574,-9.595446059310417 V88.58542419755864 zm-54.898823081686835,3.214656391551531 c6.937214916685882,0 9.715428084759122,4.051680131238534 9.63224804978687,7.678783003215542 s-2.6950331331009907,7.278467301626107 -9.63224804978687,7.278467301626107 s-9.549068014814619,-3.7726722180095313 -9.682156070770223,-7.278467301626107 S84.98146945263034,91.78794981027414 91.91868436931622,91.78794981027414 zm0,-3.6392336508130536 c-10.181236280603741,0 -15.138766364950005,5.677204495268364 -15.138766364950005,11.318016654028597 s4.79117001440176,11.07540107730773 15.138766364950005,11.07540107730773 s14.9724062950055,-5.555896706907928 15.105494350961106,-11.111793413815857 S102.0500126289366,88.14871615946109 91.91868436931622,88.14871615946109 zM42.376655539842446,109.98411806433941 v-7.933529358772457 h14.756138204077644 V98.33857038173764 H42.376655539842446 v-5.8591661778090165 H57.981230100637084 v-3.893980006369967 H36.85350121768488 V109.98411806433941 z" id="svg_1"/><path class="cls-2" d="M448.14550214148596,66.01004478368168 H411.2634746347892 V55.20152084076692 h35.56778295413528 V46.782760328552726 H411.2634746347892 V35.69522847240895 h36.88202750669688 V26.936806152785547 H398.96946546589015 v47.96509951771604 h49.17603667559584 zm-66.54402797780222,-31.12757849328765 c-4.990802098335166,-7.399775089986542 -15.57130254680572,-9.510530607458115 -25.802446848392815,-9.510530607458115 c-12.111013091960004,0 -25.436454694514897,4.100203246582707 -25.436454694514897,13.950395661450038 c0,10.747870048734551 12.393825210865666,13.343856719647864 25.802446848392815,14.556934603252214 c8.73390367208654,0.679323614818437 15.205310392927807,2.5353327767330938 15.205310392927807,7.047982503741281 c0,5.204104120662667 -7.319843077558245,7.18142107093776 -15.105494350961106,7.18142107093776 s-15.57130254680572,-2.3291095365203542 -18.48260377083457,-7.593867551363237 l-10.330960343553794,3.906110785206011 c4.8909860563684635,8.758422319623413 15.205310392927807,11.766855470962204 28.630568037449407,11.766855470962204 c14.63968615511649,0 27.582499596799014,-4.585434400024448 27.582499596799014,-15.260519775742738 c0,-11.427193663552986 -12.759817364743574,-14.023180334466298 -26.467887128170833,-15.260519775742738 c-7.868831308375112,-0.679323614818437 -14.623050148122038,-1.8438783830786143 -14.623050148122038,-6.0653894180217565 c0,-3.5543181989607486 4.408541853529398,-6.368658888922844 13.591617714466102,-6.368658888922844 c7.136847000619288,0 13.308805595560445,2.608117449749355 15.587938553800166,5.337542687859146 zm-88.73646130839926,-7.945660137608501 c-10.330960343553794,-0.06065389418021838 -20.645284680113136,0 -30.976245023666934,0 v47.96509951771604 h12.393825210865666 V60.805940663018994 h18.582419812801266 C325.07232239654076,60.805940663018994 324.9891423615685,26.936806152785547 292.89828486927337,26.936806152785547 zm-18.582419812801266,8.624983752426937 h18.582419812801266 c15.754298623744672,0 15.854114665711379,16.983090370460918 0,16.983090370460918 H274.31586505647215 zm-29.944812590011,39.3401157652891 V26.936806152785547 h-12.29400916889896 v47.96509951771604 zm-73.19843077558244,-47.96509951771604 v47.96509951771604 h46.164919409600294 V66.55592983130364 H183.6163549227277 V26.936806152785547 zM150.89332916464346,62.67408060376972 a24.172118162936655,17.62602164877122 0 0 1 -16.502918938494947,4.852311534417405 c-16.23674282658374,0 -22.52515347048605,-8.273191166181675 -22.624969512452758,-16.21885130379017 s6.754218839746923,-16.61916700537961 22.624969512452758,-16.61916700537961 a22.558425484474952,16.449336101675 0 0 1 15.854114665711379,4.512649727008187 l8.318003497225279,-5.810643062464842 a33.85427423370688,24.686134931348548 0 0 0 -24.105574134958854,-7.278467301626107 c-23.73958198108094,0 -34.93561468834616,12.725186999009644 -34.81916263938501,25.244150757806548 S110.0519319932673,76.01793732341758 134.39041022614848,76.01793732341758 a34.6528025694405,25.26841231547863 0 0 0 24.954010491675835,-7.12076717675754 zm-64.88042727835716,3.3480949587480096 H49.114238372594954 V55.20152084076692 h35.56778295413528 V46.782760328552726 H49.114238372594954 V35.69522847240895 h36.88202750669688 V26.936806152785547 H36.85350121768488 v47.96509951771604 h49.17603667559584 z" id="svg_2"/><path class="cls-1" d="M16.324668586532905,22.060233060696035 c14.9724062950055,-17.104398158821354 45.16675898993325,-23.048479788482673 70.28712955155359,-14.860204074153302 l-1.6636006994450556,-0.8370237396870296 a55.16499919359804,40.225662620320286 0 1 0 -59.556905040132975,67.72613824163092 l1.7467807344173087,0.7642390666707627 C6.392972410845932,61.630833623869975 1.2690822565551558,39.17676199835343 16.324668586532905,22.060233060696035 z" id="svg_3"/><path class="cls-2" d="M458.92563467388993,28.149884036389896 h-2.645125112117639 v5.580158264580014 h-1.6636006994450556 v-5.580158264580014 h-2.645125112117639 v-1.2130778836043512 h6.987122937669232 z" id="svg_4"/><path class="cls-2" d="M469.23995901044935,33.73004230096989 h-1.6636006994450556 l-0.8151643427280783,-4.670349851876752 l-2.445493028184232,3.214656391551531 l-2.3124049722286277,-3.0812178243550514 l-0.8151643427280783,4.536911284680275 H459.408078876729 l1.2477005245838209,-6.793236148184367 h1.4140605945282985 L464.3988809750642,30.030154755976632 l2.279132958239727,-3.093348603191095 h1.3974245875338476 z" id="svg_5"/></g></g></svg>