<svg xmlns="http://www.w3.org/2000/svg" width="469" height="110"><rect id="backgroundrect" width="100%" height="100%" x="0" y="0" fill="none" stroke="none"/><defs><style>.cls-1{fill:#f79422;}.cls-2{fill:#3d3c3b;}</style></defs><title>EF_GRY_OR_svg</title><g class="currentLayer" style=""><title>Layer 1</title><g id="Layer_1" data-name="Layer 1" class=""><path class="cls-1" d="M379.4047255533328,99.63463662274435 l-10.308194622404793,-13.078447617814618 h-3.222053913116147 V107.60060017177688 h3.9710922766818935 v-14.26739740125231 l11.069122483804918,14.26739740125231 h2.4611260517160236 V86.5680785027641 h-3.9710922766818935 zM340.8708630721171,89.76635342021149 c4.957920596935178,0 6.943466735276124,3.9710922766818935 6.88401924610424,7.526052129160593 s-1.926098649169062,7.133698700626155 -6.88401924610424,7.133698700626155 s-6.824571756932356,-3.6976338264912236 -6.907798241772994,-7.133698700626155 S335.9367214708507,89.76635342021149 340.8708630721171,89.76635342021149 zm0,-3.5668493503130776 c-7.2763726746386785,0 -10.819443029283002,5.564284986488401 -10.819443029283002,11.092901479473673 s3.4241753763005542,10.855111522786135 10.819443029283002,10.855111522786135 s10.700548050939233,-5.445390008144631 10.79566403361425,-10.890780016289263 S348.1234567510871,86.19950406989841 340.8708630721171,86.19950406989841 zm-25.241403902382213,21.401096101878466 V86.5680785027641 H311.68214588872183 V107.60060017177688 zm-28.011656897792037,0 h3.9710922766818935 V90.1705963465803 h6.670008285085455 v-3.5668493503130776 H280.93590448902313 v3.5668493503130776 h6.681897782919832 zm-22.48304040480677,-7.656836605338741 h-7.823289575020016 l3.9116447875100078,-8.988460362788956 zm3.36472788712867,7.656836605338741 h4.327777211713201 L263.4107846811515,86.5680785027641 h-4.327777211713201 L249.61896719327427,107.60060017177688 H253.89918641364994 l1.795314172990916,-3.959202778847517 h11.009674994633032 zm-45.180091770632316,-17.311108846852804 h4.327777211713201 c4.577456666235117,0 6.4916658175698005,3.2815014022880318 6.586781800244817,6.563002804576063 s-1.8072036708252928,6.931577237441747 -6.586781800244817,6.931577237441747 h-4.327777211713201 zm4.327777211713201,-3.7570813156631084 H219.41964269395686 V107.60060017177688 h8.263200994891962 c7.3714886573136935,0 10.617321566098594,-5.37405302113837 10.52220558342358,-10.700548050939233 S234.87598987864686,86.5680785027641 227.64717519534565,86.5680785027641 zm-26.596806655501183,13.078447617814618 l-10.308194622404793,-13.078447617814618 h-3.222053913116147 V107.60060017177688 h3.9710922766818935 v-14.26739740125231 l11.057232985970542,14.26739740125231 h2.4730155495504005 V86.5680785027641 h-3.9710922766818935 zm-32.64856105319904,-13.007110630808356 V98.68347679599418 c0,3.5668493503130776 -1.8547616621628005,5.802074943175939 -5.136263064450832,5.802074943175939 s-5.445390008144631,-2.009325134009701 -5.445390008144631,-5.802074943175939 V86.62752599193597 h-3.9354237831787624 V98.68347679599418 c0,6.337102345722901 4.303998216044447,9.404592786992147 9.345145297820263,9.404592786992147 c5.2908265362977325,0 9.1192448389671,-3.186385419613016 9.1192448389671,-9.404592786992147 V86.62752599193597 zm-39.23534285344385,3.1507169261098857 c4.957920596935178,0 6.943466735276124,3.9710922766818935 6.88401924610424,7.526052129160593 s-1.926098649169062,7.133698700626155 -6.88401924610424,7.133698700626155 s-6.824571756932356,-3.6976338264912236 -6.919687739607371,-7.133698700626155 S124.22043353410083,89.76635342021149 129.178354131036,89.76635342021149 zm0,-3.5668493503130776 c-7.2763726746386785,0 -10.819443029283002,5.564284986488401 -10.819443029283002,11.092901479473673 s3.4241753763005542,10.855111522786135 10.819443029283002,10.855111522786135 s10.700548050939233,-5.445390008144631 10.79566403361425,-10.890780016289263 S136.41905831217156,86.19950406989841 129.178354131036,86.19950406989841 zM93.77142958026151,107.60060017177688 v-7.77573158368251 h10.545984579092334 V96.18668225077504 H93.77142958026151 v-5.742627454004055 H104.92377854890708 v-3.8165288048349932 H89.82411629924837 V107.60060017177688 z" id="svg_1"/><path class="cls-2" d="M383.7681712585491,64.50117052216052 H357.4091545597355 V53.90762795173068 h25.419746369897865 V45.6563164546731 H357.4091545597355 V34.78931543405258 h26.359016698813644 V26.205097997632457 H348.6228156601309 v47.01107443712636 h35.14535559841819 zm-47.5579913375077,-30.508451443011193 c-3.5668493503130776,-7.252593678969924 -11.128569972976802,-9.32136630215151 -18.440611141118612,-9.32136630215151 c-8.655554423426402,0 -18.179042188762317,4.0186502680194005 -18.179042188762317,13.672922509533464 c0,10.534095081257956 8.85767588661081,13.078447617814618 18.440611141118612,14.26739740125231 c6.241986363047886,0.6658118787251078 10.86700102062051,2.4849050473847774 10.86700102062051,6.907798241772994 c0,5.100594570947702 -5.231379047125848,7.038582717951141 -10.79566403361425,7.038582717951141 s-11.128569972976802,-2.2827835842003696 -13.209232093992764,-7.442825644319955 l-7.38337815514807,3.8284183026693706 c3.495512363306816,8.58421743642014 10.86700102062051,11.532812899345616 20.46182577296269,11.532812899345616 c10.462758094251695,0 19.71278740939694,-4.494230181394478 19.71278740939694,-14.956988275646173 c0,-11.199906959983062 -9.1192448389671,-13.744259496539726 -18.91619105449369,-14.956988275646173 c-5.623732475660286,-0.6658118787251078 -10.450868596417317,-1.8072036708252928 -10.450868596417317,-5.944748917188463 c0,-3.483622865472439 3.1507169261098857,-6.241986363047886 9.713719730685947,-6.241986363047886 c5.100594570947702,0 9.51159826750154,2.556242034391039 11.140459470811177,5.231379047125848 zm-63.41858144856652,-7.787621081516886 c-7.38337815514807,-0.05944748917188539 -14.754866812461763,0 -22.138244967609836,0 v47.01107443712636 h8.85767588661081 V59.4005759512128 h13.280569080999024 C295.8096662798286,59.4005759512128 295.75021879065673,26.205097997632457 272.8153774681436,26.205097997632457 zm-13.280569080999024,8.453432960241994 h13.280569080999024 c11.259354449154948,0 11.33069143616121,16.645296968127695 0,16.645296968127695 H259.53480838714466 zm-21.401096101878466,38.55764147688436 V26.205097997632457 h-8.786338899604548 v47.01107443712636 zm-52.31379047125847,-47.01107443712636 v47.01107443712636 h32.99335649039597 V65.03619792470748 H194.71326619412162 V26.205097997632457 zM171.3266239539022,61.23155861770687 a17.275440353349673,17.275440353349673 0 0 1 -11.794381851701909,4.75579913375077 c-11.604149886351879,0 -16.098380067746355,-8.108637523045063 -16.16971705475262,-15.896258604561947 s4.8271361207570305,-16.288612033096385 16.16971705475262,-16.288612033096385 a16.12215906341511,16.12215906341511 0 0 1 11.33069143616121,4.422893194388217 l5.944748917188463,-5.695069462666548 a24.195128092957045,24.195128092957045 0 0 0 -17.227882362012163,-7.133698700626155 c-16.96631340965587,0 -24.967945452191543,12.472083228261395 -24.884718967350906,24.742044993338382 S142.13790677050685,74.31000623552148 159.53224210220029,74.31000623552148 a24.765823989007135,24.765823989007135 0 0 0 17.834246751565388,-6.979135228779255 zm-46.36904155407001,3.2815014022880318 H98.58667620318418 V53.90762795173068 h25.419746369897865 V45.6563164546731 H98.58667620318418 V34.78931543405258 h26.359016698813644 V26.205097997632457 H89.82411629924837 v47.01107443712636 h35.14535559841819 z" id="svg_2"/><path class="cls-1" d="M75.15247597162725,21.425519868212913 c10.700548050939233,-16.764191946471467 32.27998662033335,-22.590045885316158 50.23312835024251,-14.564634847111734 l-1.1889497834376925,-0.8203753505720349 a39.42557481879388,39.42557481879388 0 1 0 -42.56440224706939,66.37906640932637 l1.2483972726095771,0.7490383635657671 C68.05444576450424,60.20906180395045 64.39248043151615,38.201601312518754 75.15247597162725,21.425519868212913 z" id="svg_3"/><path class="cls-2" d="M391.47256585522535,27.39404778107015 h-1.8904301556659315 v5.469169003813385 h-1.1889497834376925 v-5.469169003813385 h-1.8904301556659315 v-1.1889497834376925 h4.9935890904383085 z" id="svg_4"/><path class="cls-2" d="M398.8440545125391,32.86321678488352 h-1.1889497834376925 l-0.5825853938844698,-4.577456666235117 l-1.747756181653408,3.1507169261098857 l-1.6526401989783928,-3.0199324499317384 l-0.5825853938844698,4.446672190056971 H391.8173612924223 l0.89171233757829,-6.658118787251078 h1.0106073159220395 L395.38421064273535,29.23691994539856 l1.628861203309639,-3.0318219477661157 h0.9987178180876625 z" id="svg_5"/></g></g></svg>